<svg width="3" height="3" viewBox="0 0 3 3" fill="none" xmlns="http://www.w3.org/2000/svg">
<g clip-path="url(#clip0_257_1075)">
<path d="M2.35855 1.90911C2.32925 1.98103 2.29304 2.04961 2.2505 2.11379C2.19366 2.19924 2.14699 2.25829 2.11121 2.29116C2.05565 2.34486 1.99596 2.37249 1.93214 2.37405C1.88642 2.37405 1.83117 2.36035 1.76682 2.3325C1.70226 2.30475 1.643 2.29116 1.5887 2.29116C1.53187 2.29116 1.47091 2.30475 1.40561 2.3325C1.34041 2.36035 1.2877 2.37494 1.24738 2.37628C1.18631 2.37907 1.12525 2.35077 1.06439 2.29116C1.02555 2.25551 0.97697 2.19423 0.918654 2.10755C0.856211 2.01518 0.80488 1.90767 0.764663 1.78544C0.721588 1.65319 0.699997 1.52529 0.699997 1.40139C0.699997 1.25956 0.729102 1.13711 0.787418 1.03461C0.831525 0.954109 0.894582 0.886922 0.970514 0.839521C1.04539 0.792244 1.13086 0.766788 1.21817 0.765764C1.26685 0.765764 1.33067 0.781585 1.40973 0.812782C1.48879 0.843978 1.53959 0.859799 1.56171 0.859799C1.57844 0.859799 1.63464 0.841193 1.73031 0.804314C1.82059 0.770109 1.89679 0.755959 1.95923 0.76153C2.12857 0.775903 2.25568 0.846095 2.34024 0.972663C2.1889 1.06926 2.11407 1.20441 2.11555 1.37788C2.11682 1.51303 2.1635 1.62545 2.25494 1.71469C2.29537 1.75542 2.34254 1.78801 2.39411 1.81085C2.3829 1.84505 2.37104 1.8777 2.35855 1.90911V1.90911ZM1.97045 0.301271C1.97045 0.407116 1.93362 0.506053 1.86049 0.597526C1.77201 0.706268 1.66512 0.769218 1.54923 0.759302C1.54771 0.745992 1.54697 0.732597 1.547 0.719192C1.547 0.617469 1.58891 0.508727 1.66374 0.419706C1.70099 0.374694 1.74841 0.337147 1.80588 0.307287C1.86324 0.277874 1.91743 0.261607 1.96844 0.258821C1.96982 0.273083 1.97045 0.287233 1.97045 0.301271V0.301271Z" fill="#383A3A"/>
</g>
<defs>
<clipPath id="clip0_257_1075">
<rect width="2.54118" height="2.54118" fill="white" transform="translate(0.276474 0.04706)"/>
</clipPath>
</defs>
</svg>
