<svg width="3" height="3" viewBox="0 0 3 3" fill="none" xmlns="http://www.w3.org/2000/svg">
<g clip-path="url(#clip0_1_8256)">
<path d="M0.317657 0.341171H0.529422L0.571775 0.552936M0.741187 1.39999H1.80001L2.22354 0.552936H0.571775M0.741187 1.39999L0.571775 0.552936M0.741187 1.39999L0.49841 1.64277C0.431708 1.70947 0.478949 1.82352 0.57328 1.82352H1.80001M1.80001 1.82352C1.68306 1.82352 1.58825 1.91833 1.58825 2.03529C1.58825 2.15224 1.68306 2.24705 1.80001 2.24705C1.91696 2.24705 2.01178 2.15224 2.01178 2.03529C2.01178 1.91833 1.91696 1.82352 1.80001 1.82352ZM0.952952 2.03529C0.952952 2.15224 0.858141 2.24705 0.741187 2.24705C0.624232 2.24705 0.529422 2.15224 0.529422 2.03529C0.529422 1.91833 0.624232 1.82352 0.741187 1.82352C0.858141 1.82352 0.952952 1.91833 0.952952 2.03529Z" stroke="#F14141" stroke-width="0.211765" stroke-linecap="round" stroke-linejoin="round"/>
</g>
<defs>
<clipPath id="clip0_1_8256">
<rect width="2.54118" height="2.54118" fill="white" transform="translate(7.62939e-06 0.0235291)"/>
</clipPath>
</defs>
</svg>
