<svg width="3" height="3" viewBox="0 0 3 3" fill="none" xmlns="http://www.w3.org/2000/svg">
<g clip-path="url(#clip0_376_1917)">
<path fill-rule="evenodd" clip-rule="evenodd" d="M1.35297 0.331063C1.4239 0.325403 1.49123 0.297512 1.54539 0.251362C1.67176 0.143665 1.85764 0.143665 1.98401 0.251362C2.03817 0.297512 2.1055 0.325403 2.17643 0.331063C2.34194 0.344271 2.47337 0.475702 2.48658 0.641216C2.49224 0.712143 2.52013 0.779476 2.56628 0.833631C2.67398 0.960006 2.67398 1.14588 2.56628 1.27225C2.52013 1.32641 2.49224 1.39374 2.48658 1.46467C2.47337 1.63018 2.34194 1.76161 2.17643 1.77482C2.1055 1.78048 2.03817 1.80837 1.98401 1.85452C1.85764 1.96222 1.67176 1.96222 1.54539 1.85452C1.49123 1.80837 1.4239 1.78048 1.35297 1.77482C1.18746 1.76161 1.05603 1.63018 1.04282 1.46467C1.03716 1.39374 1.00927 1.32641 0.963119 1.27225C0.855423 1.14588 0.855423 0.960006 0.963119 0.833631C1.00927 0.779476 1.03716 0.712143 1.04282 0.641216C1.05603 0.475702 1.18746 0.344271 1.35297 0.331063ZM2.16443 0.746795C2.19028 0.720952 2.19028 0.679051 2.16443 0.653207C2.13859 0.627364 2.09669 0.627364 2.07085 0.653207L1.36497 1.35909C1.33912 1.38493 1.33912 1.42683 1.36497 1.45268C1.39081 1.47852 1.43271 1.47852 1.45855 1.45268L2.16443 0.746795ZM1.49999 0.677942C1.43908 0.677942 1.3897 0.727323 1.3897 0.788237C1.3897 0.84915 1.43908 0.898531 1.49999 0.898531C1.56091 0.898531 1.61029 0.84915 1.61029 0.788237C1.61029 0.727323 1.56091 0.677942 1.49999 0.677942ZM2.02941 1.20735C1.96849 1.20735 1.91911 1.25673 1.91911 1.31765C1.91911 1.37856 1.96849 1.42794 2.02941 1.42794C2.09032 1.42794 2.1397 1.37856 2.1397 1.31765C2.1397 1.25673 2.09032 1.20735 2.02941 1.20735Z" fill="#FE8C00"/>
</g>
<defs>
<clipPath id="clip0_376_1917">
<rect width="2.11765" height="2.11765" fill="white" transform="translate(0.705872 -0.00588226)"/>
</clipPath>
</defs>
</svg>
