<svg width="3" height="3" viewBox="0 0 3 3" fill="none" xmlns="http://www.w3.org/2000/svg">
<g clip-path="url(#clip0_1_8251)">
<path d="M1.46578 1.11645C1.5041 1.16061 1.57098 1.16535 1.61514 1.12703C1.65931 1.0887 1.66405 1.02183 1.62572 0.97766L1.46578 1.11645ZM1.07542 1.61295C1.0371 1.56879 0.970224 1.56405 0.926056 1.60237C0.881888 1.6407 0.877152 1.70757 0.915476 1.75174L1.07542 1.61295ZM1.37648 0.835288C1.37648 0.776811 1.32908 0.729405 1.2706 0.729405C1.21212 0.729405 1.16472 0.776811 1.16472 0.835288H1.37648ZM1.16472 1.89411C1.16472 1.95259 1.21212 1.99999 1.2706 1.99999C1.32907 1.99999 1.37648 1.95259 1.37648 1.89411L1.16472 1.89411ZM2.11766 1.3647C2.11766 1.83252 1.73842 2.21176 1.2706 2.21176V2.42352C1.85537 2.42352 2.32942 1.94947 2.32942 1.3647H2.11766ZM1.2706 2.21176C0.802781 2.21176 0.42354 1.83252 0.42354 1.3647H0.211775C0.211775 1.94947 0.685827 2.42352 1.2706 2.42352V2.21176ZM0.42354 1.3647C0.42354 0.896882 0.802781 0.517641 1.2706 0.517641V0.305876C0.685827 0.305876 0.211775 0.779927 0.211775 1.3647H0.42354ZM1.2706 0.517641C1.73842 0.517641 2.11766 0.896882 2.11766 1.3647H2.32942C2.32942 0.779927 1.85537 0.305876 1.2706 0.305876V0.517641ZM1.2706 1.25882C1.20087 1.25882 1.14253 1.23978 1.10472 1.21458C1.06617 1.18887 1.05883 1.165 1.05883 1.15293H0.847069C0.847069 1.25783 0.910842 1.33983 0.987255 1.39077C1.06441 1.44221 1.16489 1.47058 1.2706 1.47058V1.25882ZM1.05883 1.15293C1.05883 1.14087 1.06617 1.117 1.10472 1.09129C1.14253 1.06609 1.20087 1.04705 1.2706 1.04705V0.835288C1.16489 0.835288 1.06441 0.86366 0.987255 0.915095C0.910842 0.966037 0.847069 1.04804 0.847069 1.15293H1.05883ZM1.2706 1.04705C1.36629 1.04705 1.4361 1.08224 1.46578 1.11645L1.62572 0.97766C1.54556 0.885273 1.41005 0.835288 1.2706 0.835288V1.04705ZM1.2706 1.47058C1.34033 1.47058 1.39866 1.48962 1.43648 1.51482C1.47503 1.54053 1.48237 1.5644 1.48237 1.57646H1.69413C1.69413 1.47157 1.63036 1.38957 1.55394 1.33862C1.47679 1.28719 1.3763 1.25882 1.2706 1.25882V1.47058ZM1.16472 0.835288V0.94117H1.37648V0.835288H1.16472ZM1.16472 1.78823L1.16472 1.89411L1.37648 1.89411L1.37648 1.78823L1.16472 1.78823ZM1.2706 1.68235C1.17491 1.68235 1.1051 1.64716 1.07542 1.61295L0.915476 1.75174C0.99564 1.84413 1.13115 1.89411 1.2706 1.89411L1.2706 1.68235ZM1.48237 1.57646C1.48237 1.58852 1.47503 1.6124 1.43648 1.63811C1.39867 1.66331 1.34033 1.68235 1.2706 1.68235V1.89411C1.3763 1.89411 1.47679 1.86574 1.55394 1.8143C1.63036 1.76336 1.69413 1.68136 1.69413 1.57646H1.48237ZM1.16472 0.94117L1.16472 1.78823L1.37648 1.78823L1.37648 0.94117L1.16472 0.94117Z" fill="#FFA043"/>
</g>
<defs>
<clipPath id="clip0_1_8251">
<rect width="2.54118" height="2.54118" fill="white" transform="translate(7.62939e-06 0.0941162)"/>
</clipPath>
</defs>
</svg>
