<svg width="3" height="3" viewBox="0 0 3 3" fill="none" xmlns="http://www.w3.org/2000/svg">
<g clip-path="url(#clip0_372_3740)">
<path d="M1.11176 1.78824H1.11265M1.72941 1.78824H1.73029M2.34706 1.78824H2.34794M1.2 1.78824C1.2 1.83697 1.1605 1.87647 1.11176 1.87647C1.06303 1.87647 1.02353 1.83697 1.02353 1.78824C1.02353 1.73951 1.06303 1.7 1.11176 1.7C1.1605 1.7 1.2 1.73951 1.2 1.78824ZM1.81765 1.78824C1.81765 1.83697 1.77814 1.87647 1.72941 1.87647C1.68068 1.87647 1.64118 1.83697 1.64118 1.78824C1.64118 1.73951 1.68068 1.7 1.72941 1.7C1.77814 1.7 1.81765 1.73951 1.81765 1.78824ZM2.43529 1.78824C2.43529 1.83697 2.39579 1.87647 2.34706 1.87647C2.29833 1.87647 2.25882 1.83697 2.25882 1.78824C2.25882 1.73951 2.29833 1.7 2.34706 1.7C2.39579 1.7 2.43529 1.73951 2.43529 1.78824Z" stroke="#101010" stroke-width="0.211765" stroke-linecap="round" stroke-linejoin="round"/>
</g>
<defs>
<clipPath id="clip0_372_3740">
<rect width="2.11765" height="2.11765" fill="white" transform="translate(0.670578 0.729413)"/>
</clipPath>
</defs>
</svg>
