<svg width="3" height="3" viewBox="0 0 3 3" fill="none" xmlns="http://www.w3.org/2000/svg">
<g clip-path="url(#clip0_1_8246)">
<path d="M0.423538 0.799999C0.423538 0.683044 0.518349 0.588234 0.635303 0.588234H0.847068C0.964022 0.588234 1.05883 0.683044 1.05883 0.799999V1.01176C1.05883 1.12872 0.964022 1.22353 0.847068 1.22353H0.635303C0.518348 1.22353 0.423538 1.12872 0.423538 1.01176V0.799999Z" stroke="#4C4DDC" stroke-width="0.211765" stroke-linecap="round" stroke-linejoin="round"/>
<path d="M1.48236 0.799999C1.48236 0.683044 1.57717 0.588234 1.69413 0.588234H1.90589C2.02285 0.588234 2.11766 0.683044 2.11766 0.799999V1.01176C2.11766 1.12872 2.02285 1.22353 1.90589 1.22353H1.69413C1.57717 1.22353 1.48236 1.12872 1.48236 1.01176V0.799999Z" stroke="#4C4DDC" stroke-width="0.211765" stroke-linecap="round" stroke-linejoin="round"/>
<path d="M0.423538 1.85882C0.423538 1.74187 0.518349 1.64706 0.635303 1.64706H0.847068C0.964022 1.64706 1.05883 1.74187 1.05883 1.85882V2.07059C1.05883 2.18754 0.964022 2.28235 0.847068 2.28235H0.635303C0.518348 2.28235 0.423538 2.18754 0.423538 2.07059V1.85882Z" stroke="#4C4DDC" stroke-width="0.211765" stroke-linecap="round" stroke-linejoin="round"/>
<path d="M1.48236 1.85882C1.48236 1.74187 1.57717 1.64706 1.69413 1.64706H1.90589C2.02285 1.64706 2.11766 1.74187 2.11766 1.85882V2.07059C2.11766 2.18754 2.02285 2.28235 1.90589 2.28235H1.69413C1.57717 2.28235 1.48236 2.18754 1.48236 2.07059V1.85882Z" stroke="#4C4DDC" stroke-width="0.211765" stroke-linecap="round" stroke-linejoin="round"/>
</g>
<defs>
<clipPath id="clip0_1_8246">
<rect width="2.54118" height="2.54118" fill="white" transform="translate(7.62939e-06 0.164703)"/>
</clipPath>
</defs>
</svg>
